<?xml version="1.0" encoding="UTF-8"?>
<svg width="502px" height="161px" viewBox="0 0 502 161" version="1.1" xmlns="http://www.w3.org/2000/svg" xmlns:xlink="http://www.w3.org/1999/xlink">
    <!-- Generator: Sketch 49 (51002) - http://www.bohemiancoding.com/sketch -->
    <title>Fill 3</title>
    <desc>Created with Sketch.</desc>
    <defs></defs>
    <g id="Page-1" stroke="none" stroke-width="1" fill="none" fill-rule="evenodd">
        <g id="Black" transform="translate(-5.000000, -176.000000)" fill="#000000">
            <path d="M334.314,269.9772 C333.7,273.1292 332.886,275.8172 331.87,278.0382 C330.855,280.2602 329.669,282.1002 328.315,283.5612 C326.96,285.0202 325.564,285.7502 324.126,285.7502 C322.476,285.7502 321.057,285.4012 319.873,284.7042 C318.688,284.0042 317.736,283.0752 317.017,281.9112 C316.296,280.7472 315.768,279.3822 315.43,277.8162 C315.09,276.2502 314.922,274.5792 314.922,272.8012 C314.922,269.2902 315.26,266.1362 315.938,263.3432 C316.614,260.5502 317.545,258.0012 318.731,255.6942 C319.915,253.3882 321.291,251.4952 322.856,250.0132 C324.421,248.5332 326.072,247.7912 327.808,247.7912 C329.119,247.7912 330.241,248.1522 331.172,248.8712 C332.102,249.5902 332.864,250.5642 333.457,251.7902 C334.049,253.0182 334.494,254.4672 334.79,256.1392 C335.085,257.8112 335.234,259.6202 335.234,261.5662 C335.234,264.0212 334.927,266.8252 334.314,269.9772 M263.25,247.6012 C263.087,249.8332 262.989,251.9602 262.953,253.9882 C262.05,254.6022 261.11,255.1912 260.104,255.7352 C257.903,256.9602 255.194,258.0702 251.979,259.0622 C248.762,260.0542 245.06,260.5502 240.871,260.5502 C240.416,260.5502 240.031,260.5042 239.714,260.4122 C239.397,260.3192 239.09,260.2172 238.795,260.1062 C238.5,259.9952 238.172,259.8942 237.809,259.8002 C237.446,259.7082 236.97,259.6622 236.38,259.6622 C235.89,259.6622 235.421,259.7172 234.976,259.8292 C234.53,259.9392 233.861,260.1802 232.97,260.5502 L233.097,259.5372 C235.796,256.2002 238.441,252.6202 241.033,248.7972 C243.624,244.9752 246.095,241.0892 248.447,237.1392 C248.611,236.8642 248.767,236.5882 248.93,236.3122 C249.403,236.5212 249.969,236.6772 250.648,236.7702 C252.948,237.0542 254.706,237.2892 255.919,237.4772 C257.133,237.6662 258.134,237.8432 258.923,238.0072 C259.71,238.1722 260.456,238.3372 261.159,238.5022 C261.861,238.6662 262.852,238.8432 264.131,239.0322 C263.753,241.8672 263.459,244.7242 263.25,247.6012 M233.639,307.7492 C233.49,310.1392 233.192,312.3402 232.746,314.3512 C232.298,316.3602 231.639,318.0212 230.766,319.3332 C229.893,320.6452 228.732,321.3012 227.286,321.3012 C226.816,321.3012 226.358,321.0162 225.912,320.4452 C225.464,319.8732 225.06,318.6352 224.698,316.7312 C224.336,314.8272 224.038,312.0342 223.804,308.3522 C223.57,304.6702 223.453,299.7192 223.453,293.4982 C223.453,292.6102 223.495,291.3942 223.58,289.8492 C223.665,288.3042 223.776,286.6682 223.918,284.9432 C224.057,283.2172 224.235,281.0042 224.451,278.3032 C224.666,275.6022 224.832,273.5202 224.949,272.0582 C225.066,270.5962 225.231,269.3822 225.446,268.4152 C225.66,267.4492 225.853,266.9642 226.024,266.9642 C226.538,266.9642 227.094,267.5422 227.694,268.6972 C228.293,269.8522 229.076,271.2232 230.04,272.8112 C231.004,274.4002 231.754,276.7722 232.289,279.9272 C232.825,283.0832 233.178,285.9132 233.35,288.4142 C233.52,290.9142 233.649,293.2452 233.734,295.4032 C233.82,297.5612 233.863,299.3802 233.863,300.8622 C233.863,303.0622 233.788,305.3582 233.639,307.7492 M231.073,238.4702 C231.385,235.7462 231.907,232.5882 232.643,228.9982 C233.376,225.4072 234.478,221.2892 235.947,216.6442 C237.549,211.5752 239.596,206.2312 242.088,200.6142 C243.602,197.1932 244.67,195.0602 245.293,194.2142 C246.094,193.2012 247.651,192.6942 249.966,192.6942 C251.432,192.6942 252.478,193.2112 253.106,194.2462 C253.734,195.2822 254.049,196.9182 254.049,199.1572 C254.049,200.7612 253.278,203.4442 251.737,207.2032 C250.196,210.9622 248.339,214.8592 246.168,218.8932 C243.997,222.9272 241.465,227.2452 238.571,231.8492 C235.677,236.4532 232.874,241.1842 230.159,246.0402 C230.457,243.7182 230.762,241.1952 231.073,238.4702 M183.261,250.9162 C184.179,249.9032 185.214,249.0032 186.51,248.3412 C187.805,247.6782 189.386,247.0822 191.193,247.3472 C191.876,247.4472 193.073,247.9472 193.774,249.1472 C194.474,250.3472 194.825,251.8782 194.825,253.7412 C194.825,255.0652 194.082,256.7412 192.595,258.7682 C191.108,260.7952 189.412,262.5972 187.862,263.7972 C186.31,264.9972 179.203,269.6752 178.004,270.0692 C178.004,269.1582 176.231,258.6762 183.261,250.9162 M119.73,244.1682 C118.529,247.0412 117.791,248.7692 115.978,250.9992 C116.709,237.9142 118.709,221.9142 123.614,209.2522 C126.534,202.4012 129.074,197.1772 131.233,193.5802 C133.391,189.9852 135.021,188.1872 136.122,188.1872 C137.024,188.1872 137.476,189.7962 137.476,193.0112 C137.476,195.1272 136.913,198.4062 135.79,202.8492 C134.666,207.2922 132.854,212.7502 130.353,219.2242 C129.589,221.1282 128.624,223.4452 127.457,226.1752 C126.291,228.9042 125.051,231.8022 123.737,234.8702 C122.423,237.9382 121.047,241.0202 119.73,244.1682 M280.436,218.6362 C281.349,215.0232 282.326,211.7142 283.367,208.7102 C284.409,205.7062 285.492,203.2382 286.617,201.3062 C287.743,199.3732 288.859,198.4072 289.964,198.4072 C290.77,198.4072 291.397,198.5752 291.843,198.9132 C292.29,199.2502 292.619,199.6712 292.831,200.1772 C293.043,200.6832 293.181,201.2202 293.245,201.7892 C293.308,202.3582 293.341,202.8742 293.341,203.3372 C293.341,204.6752 292.979,206.3892 292.257,208.4792 C291.535,210.5702 290.621,212.8182 289.517,215.2222 C288.412,217.6262 287.17,220.0722 285.789,222.5602 C284.409,225.0472 283.081,227.3572 281.806,229.4892 C281.126,229.4272 280.467,229.3732 279.83,229.3252 C279.193,229.2772 278.556,229.2232 277.919,229.1592 C278.684,225.7572 279.523,222.2492 280.436,218.6362 M506.261,266.9762 C507.689,269.2962 506.05,273.7532 506.05,273.7532 C502.876,278.2822 499.449,282.3232 495.767,285.8772 C494.202,287.4012 492.499,288.8822 490.658,290.3212 C488.817,291.7602 486.89,293.0402 484.881,294.1612 C482.871,295.2832 480.776,296.1922 478.597,296.8912 C476.417,297.5882 474.21,297.9382 471.975,297.9382 C468.056,297.9382 464.617,297.2192 461.656,295.7802 C458.695,294.3412 456.213,292.4152 454.212,290.0032 C453.359,288.9752 452.613,287.8632 451.937,286.6962 C451.028,287.4072 450.042,288.1382 448.966,288.8932 C446.703,290.4792 444.258,291.9402 441.635,293.2722 C439.011,294.6062 436.335,295.7162 433.605,296.6052 C430.877,297.4942 428.284,297.9382 425.83,297.9382 C423.628,297.9382 421.777,297.6312 420.275,297.0182 C418.773,296.4052 417.556,295.5472 416.626,294.4472 C415.802,293.4752 415.199,292.3012 414.79,290.9502 C411.337,292.7752 409.072,293.9252 408.025,294.3832 C404.724,295.8652 402.671,296.7112 401.869,296.9222 C399.752,297.6002 397.531,297.9382 395.203,297.9382 C392.875,297.9382 390.918,296.2562 389.332,292.8912 C387.744,289.5282 386.951,284.6082 386.951,278.1332 C386.951,275.5942 387.121,272.8552 387.459,269.9132 C387.796,266.9722 388.22,263.8092 388.728,260.4232 L387.712,260.4232 L371.082,293.4312 C370.193,295.2082 369.241,296.3942 368.226,296.9862 C367.168,297.6212 365.94,297.9382 364.544,297.9382 C362.808,297.9382 361.412,297.5682 360.355,296.8272 C359.296,296.0872 358.482,295.0922 357.911,293.8442 C357.339,292.5962 356.959,291.1782 356.768,289.5902 C356.578,288.0042 356.482,286.3652 356.482,284.6712 C356.482,281.8782 356.651,278.6522 356.99,274.9912 C357.267,271.9932 357.605,268.7382 357.996,265.2562 C356.11,258.0162 352.593,254.8622 349.707,252.0772 C348.458,250.8712 345.772,249.3152 344.248,248.2992 L343.74,248.9982 C344.967,251.4532 345.888,254.0432 346.502,256.7742 C347.114,259.5022 347.422,262.5812 347.422,266.0092 C347.422,268.5062 347.146,271.0242 346.597,273.5632 C346.046,276.1022 345.253,278.5572 344.216,280.9262 C343.179,283.2962 341.909,285.5182 340.408,287.5912 C338.905,289.6652 337.191,291.4632 335.266,292.9872 C333.34,294.5102 331.235,295.7162 328.95,296.6052 C326.665,297.4942 324.231,297.9382 321.65,297.9382 C317.926,297.9382 314.741,297.1232 312.097,295.4952 C309.452,293.8662 307.283,291.7392 305.591,289.1152 C305.047,288.2722 304.567,287.3802 304.117,286.4672 C299.74,291.9772 295.71,293.7092 294.298,294.3832 C291.818,295.5692 289.616,296.4572 287.688,297.0492 C285.759,297.6422 284.011,297.9382 282.444,297.9382 C279.244,297.9382 276.424,296.9652 273.983,295.0182 C271.542,293.0722 269.501,290.2682 267.859,286.6082 C266.217,282.9482 264.987,278.5142 264.167,273.3092 C263.867,271.4122 263.624,269.4252 263.434,267.3542 C261.255,268.4062 259.003,269.2632 256.676,269.9162 C253.629,270.7712 250.814,271.4132 248.234,271.8402 C245.229,272.3102 242.208,272.6102 239.169,272.7382 C240.802,275.5262 242.276,278.4182 243.592,281.4162 C244.726,283.9932 245.757,286.8762 246.688,290.0642 C247.617,293.2522 248.082,296.4732 248.082,299.7252 C248.082,300.1042 248.024,300.9072 247.912,302.1322 C247.798,303.3562 247.609,304.8562 247.343,306.6302 C247.077,308.4032 246.7,310.3672 246.213,312.5222 C245.726,314.6752 245.095,316.8502 244.319,319.0472 C243.543,321.2422 242.602,323.3652 241.494,325.4132 C240.387,327.4602 239.09,329.2772 237.606,330.8622 C236.123,332.4452 234.417,333.7222 232.49,334.6942 C230.562,335.6642 228.379,336.1512 225.943,336.1512 C223.631,336.1512 221.613,335.6232 219.89,334.5692 C218.166,333.5122 216.695,332.0892 215.476,330.2962 C214.256,328.5032 213.236,326.4142 212.417,324.0312 C211.598,321.6452 210.956,319.1252 210.494,316.4672 C210.032,313.8092 209.706,311.0972 209.517,308.3352 C209.329,305.5712 209.234,302.9022 209.234,300.3292 C209.234,300.1172 209.287,298.8302 209.393,296.4682 C209.473,294.6772 209.625,292.4342 209.847,289.7442 C209.055,290.4272 208.333,291.0022 207.778,291.3362 C205.684,292.6002 203.483,293.7232 201.177,294.7032 C198.87,295.6822 196.48,296.4672 194.004,297.0552 C191.528,297.6442 189.019,297.9382 186.478,297.9382 C182.526,297.9382 179.069,297.2062 176.106,295.7412 C173.142,294.2772 170.672,292.3062 168.697,289.8302 C168.384,289.4382 168.105,289.0192 167.817,288.6082 C167.142,289.0712 166.436,289.5472 165.691,290.0392 C164.272,290.9722 162.739,291.9162 161.089,292.8712 C159.439,293.8252 157.777,294.6682 156.106,295.4042 C154.434,296.1402 152.763,296.7462 151.091,297.2232 C149.419,297.7002 147.822,297.9382 146.299,297.9382 C143.917,297.9382 141.849,297.3442 140.095,296.1542 C138.341,294.9642 136.901,293.4522 135.775,291.6172 C134.649,289.7832 133.805,287.7772 133.242,285.5992 C132.678,283.4202 132.397,281.3652 132.397,279.4282 C132.397,278.0612 132.584,276.5332 132.959,274.8442 C133.333,273.1572 133.795,271.4562 134.345,269.7472 C134.896,268.0372 135.513,266.3712 136.195,264.7462 C136.877,263.1222 137.516,261.6682 138.111,260.3852 C138.706,259.1032 139.223,258.0562 139.664,257.2442 C140.104,256.4312 140.677,255.4452 140.235,255.1782 C139.66,254.8322 137.253,257.2722 135.54,259.1562 C133.826,261.0392 131.89,263.4152 129.731,266.2822 C127.573,269.1492 125.341,272.3722 123.035,275.9512 C120.728,279.5292 118.644,283.2222 116.782,287.0312 C115.851,288.9152 115.089,290.5582 114.497,291.9602 C113.904,293.3632 113.323,294.4912 112.752,295.3452 C112.18,296.2012 111.555,296.8462 110.879,297.2832 C110.202,297.7202 109.334,297.9382 108.276,297.9382 C106.88,297.9382 105.779,297.5612 104.976,296.8052 C104.171,296.0502 103.557,295.0462 103.135,293.7952 C102.711,292.5432 102.437,291.1232 102.31,289.5332 C102.183,287.9432 102.119,286.3132 102.119,284.6432 C102.119,284.2302 102.12,283.7932 102.121,283.3432 C101.11,284.1912 100.094,285.0742 99.072,285.9982 C97.083,287.7942 95.02,289.6912 92.883,291.6842 C90.746,293.6792 88.44,295.5352 85.964,297.2502 C83.489,298.9662 80.791,300.6062 77.871,302.1692 C74.951,303.7312 71.724,305.1012 68.191,306.2782 C64.657,307.4542 60.764,308.3902 56.511,309.0842 C52.258,309.7792 47.55,310.1252 42.388,310.1252 C36.675,310.1252 31.522,308.9882 26.931,306.7122 C22.339,304.4372 18.415,301.3692 15.156,297.5072 C11.897,293.6452 9.39,289.1582 7.634,284.0432 C5.878,278.9302 5,273.5552 5,267.9182 C5,263.9982 5.422,259.7902 6.27,255.2952 C7.116,250.8002 8.333,246.2192 9.919,241.5532 C11.506,236.8872 13.442,232.2322 15.728,227.5872 C18.013,222.9432 20.605,218.4902 23.503,214.2292 C26.401,209.9682 29.586,206.0162 33.057,202.3722 C36.526,198.7292 40.23,195.5542 44.165,192.8492 C48.101,190.1432 52.248,188.0232 56.606,186.4892 C60.964,184.9562 65.493,184.1882 70.19,184.1882 C73.237,184.1882 76.326,184.7272 79.458,185.8072 C82.589,186.8862 85.403,188.5472 87.9,190.7892 C90.397,193.0332 92.439,195.8682 94.026,199.2952 C95.613,202.7232 96.406,206.7652 96.406,211.4192 C96.406,214.5522 95.908,217.7142 94.915,220.9092 C93.92,224.1052 92.555,227.1722 90.82,230.1132 C89.085,233.0552 87.043,235.8162 84.695,238.3972 C82.346,240.9782 79.817,243.2112 77.109,245.0932 C74.401,246.9772 71.587,248.4692 68.667,249.5692 C65.747,250.6692 62.827,251.2192 59.907,251.2192 C56.056,251.2192 53.179,250.7022 51.274,249.6652 C49.37,248.6272 48.418,247.1362 48.418,245.1892 C48.418,244.8512 48.407,244.4492 48.386,243.9832 C48.364,243.5182 48.355,243.0312 48.355,242.5232 C48.355,241.7612 48.396,240.9682 48.481,240.1432 C48.566,239.3172 48.735,238.5662 48.989,237.8892 C49.243,237.2132 49.613,236.6622 50.1,236.2392 C50.586,235.8162 51.252,235.6042 52.1,235.6042 C52.607,235.6042 53.052,235.6782 53.433,235.8262 C53.814,235.9752 54.236,236.1342 54.702,236.3022 C55.168,236.4722 55.728,236.6302 56.384,236.7782 C57.04,236.9272 57.876,237.0002 58.892,237.0002 C61.599,237.0002 64.34,236.4082 67.112,235.2232 C69.883,234.0392 72.38,232.3672 74.602,230.2082 C76.824,228.0502 78.643,225.4792 80.061,222.4962 C81.479,219.5132 82.188,216.2232 82.188,212.6252 C82.188,210.7212 81.934,208.9122 81.426,207.1982 C80.918,205.4842 80.093,203.9832 78.95,202.6912 C77.808,201.4012 76.337,200.3652 74.539,199.5812 C72.739,198.7982 70.549,198.4072 67.969,198.4072 C64.922,198.4072 61.948,199.0792 59.05,200.4242 C56.151,201.7692 53.369,203.5932 50.703,205.8982 C48.037,208.2032 45.508,210.9352 43.118,214.0922 C40.727,217.2512 38.516,220.6332 36.484,224.2402 C34.453,227.8462 32.622,231.6022 30.994,235.5082 C29.364,239.4142 27.979,243.3082 26.836,247.1922 C25.693,251.0762 24.814,254.8422 24.202,258.4922 C23.588,262.1412 23.281,265.5022 23.281,268.5752 C23.281,273.0902 23.821,277.0252 24.9,280.3762 C25.979,283.7292 27.512,286.5232 29.502,288.7582 C31.491,290.9952 33.923,292.6612 36.802,293.7552 C39.679,294.8512 42.917,295.3992 46.514,295.3992 C50.999,295.3992 55.178,294.8192 59.05,293.6582 C62.922,292.4962 66.614,290.9722 70.127,289.0882 C73.639,287.2042 77.035,285.0772 80.315,282.7102 C83.594,280.3442 86.874,277.9652 90.154,275.5782 C93.433,273.1892 97.431,269.3782 100.607,266.8822 C101.182,266.4302 101.795,265.9172 102.431,265.3722 C102.529,262.8882 102.657,260.2972 102.817,257.5832 C103.156,251.8602 103.773,245.9292 104.671,239.7922 C105.568,233.6562 106.46,227.5502 107.349,221.4772 C108.238,215.4032 109.561,209.6212 111.319,204.1322 C113.078,198.6442 115.218,193.8122 117.739,189.6372 C120.261,185.4622 123.215,182.1462 126.606,179.6872 C129.995,177.2292 133.893,175.9992 138.301,175.9992 C140.586,175.9992 142.459,176.3412 143.918,177.0212 C145.378,177.7032 146.542,178.6612 147.41,179.8942 C148.276,181.1292 148.879,182.6082 149.219,184.3322 C149.557,186.0562 149.727,187.9822 149.727,190.1102 C149.727,193.2742 149.282,196.7792 148.394,200.6262 C147.505,204.4742 146.331,208.4712 144.871,212.6172 C143.411,216.7622 141.75,220.9632 139.888,225.2162 C138.025,229.4692 136.121,233.5942 134.175,237.5912 C132.228,241.5882 130.313,245.3612 128.43,248.9092 C126.547,252.4562 124.885,255.5772 123.447,258.2692 C123.447,258.2692 127.248,254.4572 129.584,251.9142 C132.516,248.7212 135.603,245.7982 139.221,242.2782 C142.839,238.7572 145.801,236.2252 148.108,234.6822 C150.414,233.1382 152.583,232.3672 154.614,232.3672 C155.122,232.3672 155.693,232.4642 156.328,232.6582 C156.963,232.8522 157.566,233.2072 158.137,233.7262 C158.709,234.2432 159.185,234.9652 159.565,235.8932 C159.946,236.8202 160.137,238.0162 160.137,239.4822 C160.137,242.4152 159.734,245.2732 158.931,248.0532 C158.127,250.8352 156.603,254.2102 154.36,258.1782 C152.117,262.1452 150.605,265.5742 149.822,268.4632 C149.038,271.3522 148.647,274.3722 148.647,277.5192 C148.647,279.2452 148.901,280.6232 149.409,281.6602 C149.917,282.6952 150.573,283.2112 151.377,283.2112 C152.393,283.2112 153.472,282.9982 154.614,282.5712 C155.757,282.1432 161.627,279.3692 162.77,278.6852 C162.92,278.5952 163.179,278.4642 163.518,278.3022 C163.028,275.9452 162.77,273.5122 162.77,270.9952 C162.77,268.6572 163.019,263.6172 163.904,260.3802 C164.788,257.1422 166.309,249.9592 173.724,242.0232 C175.487,240.1352 179.49,237.7192 181.868,236.6952 C184.247,235.6712 186.888,235.1602 189.792,235.1602 C192.164,235.1602 194.367,235.5402 196.4,236.3012 C198.434,237.0622 200.203,238.1292 201.707,239.5032 C203.21,240.8762 204.386,242.5362 205.233,244.4802 C206.081,246.4232 206.505,248.6012 206.505,251.0092 C206.505,253.5752 205.646,256.4512 203.928,259.6372 C202.21,262.8232 200.196,265.5432 197.917,267.8292 C192.878,272.8842 180.733,280.1202 181.349,280.8652 C181.964,281.6102 182.591,282.1892 183.229,282.6022 C183.866,283.0162 184.535,283.3052 185.235,283.4712 C185.936,283.6372 186.69,283.7192 187.498,283.7192 C190.037,283.7192 192.713,283.2232 195.527,282.2302 C198.341,281.2372 201.465,279.9242 203.994,278.2132 C206.728,276.3632 209.254,273.9782 211.507,271.3682 C211.953,266.8302 212.532,262.0932 213.265,257.1322 C214.108,251.4232 215.102,245.5682 216.248,239.5642 C217.392,233.5612 218.754,227.7152 220.331,222.0272 C221.908,216.3402 223.713,210.9782 225.744,205.9432 C227.775,200.9092 230.055,196.5062 232.583,192.7352 C235.111,188.9642 237.931,185.9842 241.043,183.7932 C244.154,181.6022 247.568,180.5062 251.286,180.5062 C252.721,180.5062 254.231,180.7542 255.814,181.2482 C257.397,181.7432 258.843,182.5462 260.152,183.6592 C261.462,184.7722 262.549,186.2462 263.415,188.0802 C264.279,189.9142 264.713,192.1702 264.713,194.8482 C264.713,197.3402 264.309,200.2022 263.504,203.4332 C262.699,206.6642 261.566,210.1182 260.107,213.7932 C258.648,217.4682 256.928,221.2902 254.946,225.2602 C254.356,226.4422 253.745,227.6232 253.122,228.8032 C253.809,228.7582 254.521,228.7272 255.268,228.7172 C256.821,228.6962 258.31,228.7072 259.735,228.7482 C261.159,228.7912 262.436,228.8232 263.564,228.8442 C264.69,228.8662 265.467,228.8342 265.892,228.7492 C267.033,223.0532 268.479,217.5352 270.232,212.1972 C271.986,206.8592 273.95,202.1122 276.126,197.9562 C278.301,193.8002 280.677,190.4662 283.254,187.9552 C285.831,185.4442 288.535,184.1882 291.365,184.1882 C293.186,184.1882 294.847,184.6962 296.351,185.7102 C297.855,186.7252 299.135,188.0782 300.194,189.7692 C301.252,191.4602 302.068,193.4362 302.639,195.6982 C303.21,197.9602 303.497,200.3172 303.497,202.7692 C303.497,204.7982 303.201,206.9402 302.607,209.1962 C302.014,211.4522 301.21,213.7502 300.194,216.0892 C299.179,218.4282 297.982,220.7982 296.607,223.1982 C295.231,225.6002 294.43,227.8652 292.907,230.2242 C301.91,228.9402 307.207,227.4572 313.468,225.4672 C314.276,225.2102 315.017,225.4782 315.671,226.1982 C316.324,226.9182 316.875,227.9232 317.323,229.2132 C317.842,230.7072 317.864,232.0632 317.39,233.2792 C316.916,234.4962 316.198,235.2702 315.237,235.6042 C315.237,235.6042 305.435,240.1672 288.413,241.0632 C287.498,241.1112 286.882,241.0632 286.882,241.0632 C285.913,242.9122 283.195,247.8552 282.244,249.0912 C280.991,250.7212 278.724,254.3512 277.662,255.6632 C277.493,258.2872 277.662,255.6632 277.535,258.2022 C277.493,259.3022 277.45,260.4342 277.408,261.5982 C277.366,262.7622 277.323,263.9152 277.281,265.0572 C277.239,266.2002 277.207,267.3002 277.186,268.3582 C277.164,269.4162 277.154,270.3892 277.154,271.2782 C277.154,273.5632 277.367,275.4892 277.791,277.0542 C278.215,278.6212 278.833,279.9012 279.64,280.8952 C280.447,281.8892 281.434,282.6082 282.603,283.0532 C283.771,283.4972 285.077,283.7192 286.522,283.7192 C287.411,283.7192 288.522,283.5082 289.857,283.0842 C290.887,282.7582 296.099,281.6882 300.721,270.8072 C300.718,270.6042 300.703,270.4022 300.703,270.1992 C300.703,264.6132 301.401,259.7992 302.798,255.7582 C304.194,251.7172 306.194,248.2042 308.796,245.2202 C311.399,242.2372 314.583,239.8892 318.35,238.1752 C322.116,236.4612 326.348,235.6042 331.045,235.6042 C335.065,235.6042 338.831,236.2292 342.344,237.4772 C345.856,238.7252 349.146,240.3962 352.214,242.4912 C355.069,244.4402 357.733,246.8772 360.221,249.7602 C360.768,246.8252 361.299,244.2492 361.814,242.0792 C362.28,240.1332 363.179,238.5032 364.512,237.1912 C365.845,235.8802 367.654,235.2232 369.939,235.2232 C372.225,235.2232 373.812,235.9212 374.7,237.3182 C375.589,238.7142 376.033,240.5772 376.033,242.9042 C376.033,243.5392 375.97,244.3952 375.843,245.4742 C375.716,246.5532 375.557,247.7392 375.367,249.0302 C375.176,250.3212 374.975,251.6542 374.764,253.0282 C374.551,254.4042 374.351,255.9702 374.161,257.7252 C373.97,259.4822 373.812,260.7942 373.685,261.6612 C373.558,262.5292 373.494,263.1112 373.494,263.4072 L374.764,263.4072 C375.018,262.9422 375.419,262.1912 375.97,261.1532 C376.519,260.1172 377.154,258.6252 377.874,256.6782 C378.593,254.7322 379.366,253.0072 380.191,251.5042 C381.016,250.0032 381.788,248.5642 382.507,247.1882 C383.226,245.8142 383.882,244.5972 384.476,243.5392 C385.068,242.4812 385.511,241.6982 385.808,241.1902 C387.162,238.9052 388.707,237.3402 390.443,236.4932 C392.177,235.6462 394.103,235.2232 396.218,235.2232 C398.334,235.2232 400.017,236.1122 401.265,237.8892 C402.513,239.6662 403.138,242.1212 403.138,245.2522 C403.138,245.7182 403.043,246.5012 402.851,247.6012 C402.662,248.7022 402.418,250.0132 402.123,251.5372 C401.826,253.0602 401.498,255.0282 401.138,257.4402 C400.779,259.8522 400.451,262.0102 400.154,263.9152 C399.857,265.8192 399.615,267.7032 399.423,269.5642 C399.234,271.4262 399.138,273.1402 399.138,274.7062 C399.138,277.3302 399.466,279.4882 400.123,281.1802 C400.779,282.8732 401.804,283.7192 403.201,283.7192 C403.709,283.7192 404.427,283.5292 405.359,283.1482 C406.755,282.6402 407.644,282.1962 408.025,281.8152 C409.886,280.3762 410.861,279.6782 410.945,279.7202 C411.063,279.7602 412.311,279.0212 414.659,277.5252 C414.74,276.9722 414.815,276.4252 414.912,275.8482 C416.131,268.4962 416.916,264.3662 417.264,263.4572 C417.84,261.6502 418.994,257.6462 420.725,251.4462 C422.331,246.3912 423.322,243.1012 423.7,241.5762 C423.908,240.5062 424.49,239.5432 425.447,238.6872 C426.32,237.9182 427.306,237.2862 428.409,236.7942 C429.51,236.3022 430.654,235.9392 431.839,235.7032 C433.023,235.4682 434.094,235.3502 435.05,235.3502 C436.796,235.3502 437.981,235.6782 438.605,236.3342 C439.228,236.9912 439.541,237.8682 439.541,238.9682 C439.541,239.8992 439.324,241.2152 438.889,242.9152 C438.455,244.6152 437.959,246.5522 437.403,248.7272 C436.847,250.9012 436.024,253.6972 434.933,257.1152 C433.842,260.5332 433.097,263.4472 432.698,265.8582 C432.298,268.2702 431.794,270.6642 431.185,273.0442 C430.577,275.4242 430.273,277.5862 430.273,279.5332 C430.273,281.4362 430.484,282.9492 430.908,284.0702 C431.331,285.1902 432.198,285.7502 433.51,285.7502 C435.034,285.7502 436.726,285.2222 438.588,284.1642 C440.45,283.1062 442.334,281.8262 444.238,280.3232 C445.695,279.1742 447.119,277.9842 448.526,276.7732 C448.27,275.1212 448.142,273.4372 448.142,271.7222 C448.142,269.2682 448.567,266.3272 449.418,262.8992 C450.269,259.4712 451.194,256.4782 452.194,253.9162 C453.194,251.3572 454.426,248.9142 455.894,246.5852 C457.362,244.2592 459.063,242.2162 461,240.4602 C462.935,238.7052 465.094,237.3082 467.477,236.2702 C469.859,235.2342 472.474,234.7152 475.325,234.7152 C477.891,234.7152 480.266,235.0862 482.45,235.8262 C484.634,236.5672 486.502,237.5942 488.056,238.9052 C489.609,240.2172 490.824,241.7722 491.703,243.5702 C492.581,245.3702 493.02,247.3052 493.02,249.3782 C493.02,250.8182 492.814,252.2352 492.401,253.6312 C491.989,255.0282 491.187,256.6682 489.997,258.5512 C488.807,260.4342 487.65,261.7142 486.529,262.3912 C485.407,263.0692 484.136,263.4072 482.717,263.4072 C480.577,263.4072 479.194,262.8782 478.57,261.8202 C477.544,260.1692 477.221,258.7092 477.6,257.4402 C477.726,256.7632 478.105,255.1982 478.738,252.7432 C478.822,252.4052 478.843,251.6432 478.801,250.4572 C478.801,249.4422 478.695,248.5962 478.485,247.9182 C478.275,247.2422 477.811,246.9032 477.095,246.9032 C475.368,246.9032 473.893,247.3152 472.67,248.1412 C471.449,248.9652 470.406,250.0452 469.543,251.3772 C468.679,252.7112 467.826,254.5942 466.983,257.0282 C466.14,259.4612 465.54,261.5022 465.181,263.1532 C464.824,264.8032 464.602,266.3802 464.518,267.8812 C464.434,269.3842 464.392,270.6432 464.392,271.6592 C464.392,273.1822 464.529,274.7692 464.802,276.4192 C465.077,278.0702 465.624,279.5832 466.445,280.9572 C467.266,282.3332 468.331,283.4762 469.637,284.3852 C470.943,285.2962 472.628,285.7502 474.693,285.7502 C476.724,285.7502 478.967,285.1262 481.421,283.8772 C483.876,282.6302 486.341,281.0532 488.817,279.1492 C491.293,277.2452 493.651,275.1502 495.894,272.8652 C498.137,270.5802 500.062,268.4212 501.67,266.3902 C501.67,266.3902 504.833,264.6562 506.261,266.9762 Z M437.1919,227.5427 C433.4669,227.5427 430.7169,226.6567 428.9399,224.8837 C427.1629,223.1107 426.2739,220.7517 426.2739,217.8037 C426.2739,216.8217 426.4849,215.7107 426.9089,214.4727 C427.3319,213.2337 428.0189,212.0687 428.9719,210.9807 C429.9229,209.8917 431.1929,208.9727 432.7809,208.2247 C434.3669,207.4777 436.3449,207.1037 438.7149,207.1037 C440.1959,207.1037 441.5919,207.2747 442.9049,207.6157 C444.2159,207.9587 445.3589,208.4817 446.3329,209.1867 C447.3049,209.8907 448.0779,210.8197 448.6499,211.9727 C449.2199,213.1267 449.5059,214.4937 449.5059,216.0737 C449.5059,217.5257 449.2729,218.9357 448.8079,220.3027 C448.3419,221.6687 447.6019,222.8867 446.5869,223.9547 C445.5709,225.0227 444.2909,225.8877 442.7459,226.5497 C441.2009,227.2127 439.3499,227.5427 437.1919,227.5427 Z" id="Fill-3"></path>
        </g>
    </g>
</svg>